HIERARCHY
ROOT CG
{
	OFFSET 0.000000 0.000000 27.772259
	CHANNELS 6 Xposition Yposition Zposition Xrotation Yrotation Zrotation
	JOINT Pelvis
	{
		OFFSET 0.000000 0.000000 0.000000
		CHANNELS 3 Xrotation Yrotation Zrotation
		JOINT Spine
		{
			OFFSET -0.000017 -10.490843 -0.495483
			CHANNELS 3 Xrotation Yrotation Zrotation
			JOINT Spine1
			{
				OFFSET -0.000010 -22.678980 0.018061
				CHANNELS 3 Xrotation Yrotation Zrotation
				JOINT Spine2
				{
					OFFSET -0.000010 -22.678967 0.018061
					CHANNELS 3 Xrotation Yrotation Zrotation
					JOINT Spine3
					{
						OFFSET -0.000010 -22.678982 0.018059
						CHANNELS 3 Xrotation Yrotation Zrotation
						JOINT Neck
						{
							OFFSET -0.000012 -22.678986 -1.289251
							CHANNELS 3 Xrotation Yrotation Zrotation
							JOINT Neck1
							{
								OFFSET -0.000007 -16.255905 0.012947
								CHANNELS 3 Xrotation Yrotation Zrotation
								JOINT Head
								{
									OFFSET -0.000005 -10.784607 -0.287502
									CHANNELS 3 Xrotation Yrotation Zrotation
									JOINT Jaw01
									{
										OFFSET 0.000031 7.782959 5.073944
										CHANNELS 3 Xrotation Yrotation Zrotation
										JOINT Jaw02
										{
											OFFSET 0.000004 -34.927139 -18.883980
											CHANNELS 3 Xrotation Yrotation Zrotation
											End Site
											{
												OFFSET -0.000170 8.372803 -38.812450
											}
										}
									}
									JOINT Nose
									{
										OFFSET -0.000002 -25.700912 7.222265
										CHANNELS 3 Xrotation Yrotation Zrotation
										End Site
										{
											OFFSET -0.000090 0.641281 -21.715439
										}
									}
									JOINT L_EyeSocket
									{
										OFFSET 7.352326 -19.832718 14.164183
										CHANNELS 3 Xrotation Yrotation Zrotation
										JOINT L_Eye
										{
											OFFSET -0.000868 -0.001053 0.016003
											CHANNELS 3 Xrotation Yrotation Zrotation
											End Site
											{
												OFFSET -0.001505 -0.001846 0.027969
											}
										}
										JOINT L_Eyelid_Top
										{
											OFFSET -0.001004 -0.002625 0.032516
											CHANNELS 3 Xrotation Yrotation Zrotation
											End Site
											{
												OFFSET -0.013218 0.005753 0.024086
											}
										}
										JOINT L_Eyelid_Bottom
										{
											OFFSET -0.001194 -0.002777 0.035381
											CHANNELS 3 Xrotation Yrotation Zrotation
											End Site
											{
												OFFSET -0.010032 0.008636 -0.024754
											}
										}
									}
									JOINT R_EyeSocket
									{
										OFFSET -7.352252 -19.832748 14.164206
										CHANNELS 3 Xrotation Yrotation Zrotation
										JOINT R_Eye
										{
											OFFSET 0.000875 -0.001068 0.015991
											CHANNELS 3 Xrotation Yrotation Zrotation
											End Site
											{
												OFFSET 0.001505 -0.001846 0.027962
											}
										}
										JOINT R_Eyelid_Top
										{
											OFFSET 0.001021 -0.002625 0.032516
											CHANNELS 3 Xrotation Yrotation Zrotation
											End Site
											{
												OFFSET 0.013214 0.005753 0.024078
											}
										}
										JOINT R_Eyelid_Bottom
										{
											OFFSET 0.001170 -0.002762 0.035366
											CHANNELS 3 Xrotation Yrotation Zrotation
											End Site
											{
												OFFSET 0.010029 0.008636 -0.024746
											}
										}
									}
								}
								JOINT Neck_Fat
								{
									OFFSET 0.000044 -9.595100 -17.491512
									CHANNELS 3 Xrotation Yrotation Zrotation
									End Site
									{
										OFFSET -0.000036 15.369423 -0.000007
									}
								}
							}
						}
						JOINT L_Clavicle
						{
							OFFSET 4.567107 -11.666092 -3.750029
							CHANNELS 3 Xrotation Yrotation Zrotation
							JOINT L_UpperArm
							{
								OFFSET 20.725666 -0.000053 -0.000032
								CHANNELS 3 Xrotation Yrotation Zrotation
								JOINT L_Forearm
								{
									OFFSET 5.265112 -0.585754 -20.155697
									CHANNELS 3 Xrotation Yrotation Zrotation
									JOINT L_Hand
									{
										OFFSET 2.653017 -10.877708 -16.383667
										CHANNELS 3 Xrotation Yrotation Zrotation
										JOINT L_Finger0
										{
											OFFSET -4.206146 -4.328911 -5.034346
											CHANNELS 3 Xrotation Yrotation Zrotation
											JOINT L_Finger01
											{
												OFFSET 0.084272 -1.788536 -4.181065
												CHANNELS 3 Xrotation Yrotation Zrotation
												End Site
												{
													OFFSET 3.261885 3.094673 -0.685818
												}
											}
										}
										JOINT L_Finger1
										{
											OFFSET -1.039112 -6.775742 -3.499998
											CHANNELS 3 Xrotation Yrotation Zrotation
											JOINT L_Finger11
											{
												OFFSET 1.320335 -3.040672 -6.425793
												CHANNELS 3 Xrotation Yrotation Zrotation
												End Site
												{
													OFFSET -1.244579 6.832077 -2.013330
												}
											}
										}
										JOINT L_Finger2
										{
											OFFSET 2.531296 -5.656487 -3.286415
											CHANNELS 3 Xrotation Yrotation Zrotation
											JOINT L_Finger21
											{
												OFFSET 1.991665 -2.402016 -5.957748
												CHANNELS 3 Xrotation Yrotation Zrotation
												End Site
												{
													OFFSET -2.793068 5.800873 -1.944178
												}
											}
										}
										JOINT L_Finger3
										{
											OFFSET 5.474075 -3.302338 -2.655975
											CHANNELS 3 Xrotation Yrotation Zrotation
											JOINT L_Finger31
											{
												OFFSET 2.026943 -1.267532 -5.961166
												CHANNELS 3 Xrotation Yrotation Zrotation
												End Site
												{
													OFFSET -4.375172 4.343658 -1.800320
												}
											}
										}
										JOINT L_Finger4
										{
											OFFSET 4.825745 1.085899 -2.321970
											CHANNELS 3 Xrotation Yrotation Zrotation
											JOINT L_Finger41
											{
												OFFSET 3.358261 -1.829651 -3.744434
												CHANNELS 3 Xrotation Yrotation Zrotation
												End Site
												{
													OFFSET -3.843296 2.955200 -2.267633
												}
											}
										}
									}
								}
							}
						}
						JOINT R_Clavicle
						{
							OFFSET -4.567111 -11.666092 -3.750036
							CHANNELS 3 Xrotation Yrotation Zrotation
							JOINT R_UpperArm
							{
								OFFSET -20.725670 -0.000031 0.000038
								CHANNELS 3 Xrotation Yrotation Zrotation
								JOINT R_Forearm
								{
									OFFSET -5.265285 -0.585762 -20.155655
									CHANNELS 3 Xrotation Yrotation Zrotation
									JOINT R_Hand
									{
										OFFSET -2.653147 -10.877739 -16.383663
										CHANNELS 3 Xrotation Yrotation Zrotation
										JOINT R_Finger0
										{
											OFFSET 4.206116 -4.328888 -5.034388
											CHANNELS 3 Xrotation Yrotation Zrotation
											JOINT R_Finger01
											{
												OFFSET -0.084324 -1.788544 -4.181051
												CHANNELS 3 Xrotation Yrotation Zrotation
												End Site
												{
													OFFSET -3.261890 3.094666 -0.685791
												}
											}
										}
										JOINT R_Finger1
										{
											OFFSET 1.039101 -6.775711 -3.499994
											CHANNELS 3 Xrotation Yrotation Zrotation
											JOINT R_Finger11
											{
												OFFSET -1.320374 -3.040672 -6.425779
												CHANNELS 3 Xrotation Yrotation Zrotation
												End Site
												{
													OFFSET 1.244556 6.832077 -2.013342
												}
											}
										}
										JOINT R_Finger2
										{
											OFFSET -2.531307 -5.656464 -3.286409
											CHANNELS 3 Xrotation Yrotation Zrotation
											JOINT R_Finger21
											{
												OFFSET -1.991707 -2.402016 -5.957708
												CHANNELS 3 Xrotation Yrotation Zrotation
												End Site
												{
													OFFSET 2.793037 5.800858 -1.944197
												}
											}
										}
										JOINT R_Finger3
										{
											OFFSET -5.474091 -3.302330 -2.655947
											CHANNELS 3 Xrotation Yrotation Zrotation
											JOINT R_Finger31
											{
												OFFSET -2.026993 -1.267532 -5.961157
												CHANNELS 3 Xrotation Yrotation Zrotation
												End Site
												{
													OFFSET 4.375156 4.343674 -1.800358
												}
											}
										}
										JOINT R_Finger4
										{
											OFFSET -4.825756 1.085922 -2.321926
											CHANNELS 3 Xrotation Yrotation Zrotation
											JOINT R_Finger41
											{
												OFFSET -3.358307 -1.829651 -3.744390
												CHANNELS 3 Xrotation Yrotation Zrotation
												End Site
												{
													OFFSET 3.843273 2.955208 -2.267666
												}
											}
										}
									}
								}
							}
						}
					}
				}
			}
		}
		JOINT Tail01
		{
			OFFSET -0.000010 10.922326 -0.017508
			CHANNELS 3 Xrotation Yrotation Zrotation
			JOINT Tail02
			{
				OFFSET -0.000022 21.986111 0.000013
				CHANNELS 3 Xrotation Yrotation Zrotation
				JOINT Tail03
				{
					OFFSET -0.000022 21.986118 0.000002
					CHANNELS 3 Xrotation Yrotation Zrotation
					JOINT Tail04
					{
						OFFSET -0.000022 21.986122 0.000004
						CHANNELS 3 Xrotation Yrotation Zrotation
						JOINT Tail05
						{
							OFFSET -0.000022 21.986099 0.000010
							CHANNELS 3 Xrotation Yrotation Zrotation
							JOINT Tail06
							{
								OFFSET -0.000022 21.986099 0.000006
								CHANNELS 3 Xrotation Yrotation Zrotation
								JOINT Tail07
								{
									OFFSET -0.000022 21.986099 0.000000
									CHANNELS 3 Xrotation Yrotation Zrotation
									JOINT Tail08
									{
										OFFSET -0.000022 21.984848 0.000050
										CHANNELS 3 Xrotation Yrotation Zrotation
										JOINT Tail09
										{
											OFFSET -0.000025 21.926025 -1.606211
											CHANNELS 3 Xrotation Yrotation Zrotation
											JOINT Tail10
											{
												OFFSET -0.000027 21.750092 -3.203882
												CHANNELS 3 Xrotation Yrotation Zrotation
												End Site
												{
													OFFSET -0.000036 4.767395 21.461668
												}
											}
										}
									}
								}
							}
						}
					}
				}
			}
		}
		JOINT L_Thigh
		{
			OFFSET 24.788780 0.000021 -0.000034
			CHANNELS 3 Xrotation Yrotation Zrotation
			JOINT L_Calf
			{
				OFFSET 4.720837 4.161326 -21.049969
				CHANNELS 3 Xrotation Yrotation Zrotation
				JOINT L_Foot
				{
					OFFSET 2.154160 21.114433 -11.949743
					CHANNELS 3 Xrotation Yrotation Zrotation
					JOINT L_Toe0
					{
						OFFSET 4.557564 9.251841 -8.735286
						CHANNELS 3 Xrotation Yrotation Zrotation
						End Site
						{
							OFFSET 4.555542 -12.646044 1.018752
						}
					}
					JOINT L_Toe1
					{
						OFFSET 2.346291 5.845602 -11.687160
						CHANNELS 3 Xrotation Yrotation Zrotation
						End Site
						{
							OFFSET 5.347954 -12.298279 1.365644
						}
					}
					JOINT L_Toe2
					{
						OFFSET -0.356020 3.902458 -12.541145
						CHANNELS 3 Xrotation Yrotation Zrotation
						End Site
						{
							OFFSET 3.916235 -12.806129 1.542549
						}
					}
					JOINT L_Toe3
					{
						OFFSET -4.603447 3.183935 -12.435249
						CHANNELS 3 Xrotation Yrotation Zrotation
						End Site
						{
							OFFSET 3.810858 -12.587427 2.957583
						}
					}
					JOINT L_Toe4
					{
						OFFSET -7.144358 6.231495 -10.072764
						CHANNELS 3 Xrotation Yrotation Zrotation
						End Site
						{
							OFFSET 3.810858 -12.587425 2.957585
						}
					}
				}
			}
		}
		JOINT R_Thigh
		{
			OFFSET -24.788780 -0.000024 0.000034
			CHANNELS 3 Xrotation Yrotation Zrotation
			JOINT R_Calf
			{
				OFFSET -4.720922 4.161324 -21.049952
				CHANNELS 3 Xrotation Yrotation Zrotation
				JOINT R_Foot
				{
					OFFSET -2.154238 21.114414 -11.949730
					CHANNELS 3 Xrotation Yrotation Zrotation
					JOINT R_Toe0
					{
						OFFSET -4.557598 9.251823 -8.735270
						CHANNELS 3 Xrotation Yrotation Zrotation
						End Site
						{
							OFFSET -4.555508 -12.646051 1.018756
						}
					}
					JOINT R_Toe1
					{
						OFFSET -2.346325 5.845589 -11.687157
						CHANNELS 3 Xrotation Yrotation Zrotation
						End Site
						{
							OFFSET -5.347919 -12.298286 1.365654
						}
					}
					JOINT R_Toe2
					{
						OFFSET 0.355980 3.902462 -12.541145
						CHANNELS 3 Xrotation Yrotation Zrotation
						End Site
						{
							OFFSET -3.916199 -12.806131 1.542559
						}
					}
					JOINT R_Toe3
					{
						OFFSET 4.603411 3.183941 -12.435266
						CHANNELS 3 Xrotation Yrotation Zrotation
						End Site
						{
							OFFSET -3.810825 -12.587429 2.957591
						}
					}
					JOINT R_Toe4
					{
						OFFSET 7.144323 6.231503 -10.072779
						CHANNELS 3 Xrotation Yrotation Zrotation
						End Site
						{
							OFFSET -3.810825 -12.587433 2.957584
						}
					}
				}
			}
		}
	}
}
MOTION
Frames: 4
Frame Time: 0.033333
-0.000000 -0.000000 19.577248 0.000000 -0.000000 0.000044 -8.806990 -0.000090 0.000041 -1.335431 0.000012 -0.000021 -1.020879 0.000001 -0.000005 -1.020880 0.000001 -0.000005 3.618832 -0.000001 0.000007 -4.143095 0.000001 -0.000006 4.031859 -0.000001 0.000006 7.369637 -0.000004 0.000008 -13.231824 -0.000021 0.000020 1.900883 0.000004 -0.000007 0.000000 0.000000 -0.000000 0.000001 -0.000001 -0.000033 0.000124 -0.000076 0.000010 0.000007 0.000001 -0.000010 0.000008 0.000006 0.000002 0.000001 0.000000 -0.000003 0.000123 0.000077 -0.000017 0.000002 -0.000000 0.000000 0.000004 -0.000006 -0.000002 -0.000001 -0.000000 0.000000 -0.000000 -0.000000 0.000000 29.930343 -18.583483 5.249313 -4.327020 0.720642 -1.125141 -14.244566 -5.815121 -7.895842 8.264666 8.263991 -39.385849 -1.141469 1.103566 -0.482133 -8.395416 20.498682 -16.009356 -1.618063 -0.342122 -0.174159 -0.810462 2.694951 -11.457877 -1.465787 -0.763347 -0.190629 -3.473578 -5.516821 -4.822969 -1.141504 -1.201483 -0.143832 0.721372 17.389469 35.357051 -0.942246 -1.358013 -0.189871 -0.000001 0.000000 0.000000 33.559137 18.053877 -7.061689 -4.861876 -0.815742 1.260646 -13.782162 6.004361 8.063131 8.892626 -3.571254 37.979697 2.290915 2.157478 -1.020667 -3.154566 -20.102768 17.322606 3.203894 -0.691893 -0.316332 3.927816 -4.078992 11.198846 2.898356 -1.526048 -0.319926 0.205741 2.205993 4.181755 2.255128 -2.388479 -0.214378 0.629916 -22.321207 -35.922174 1.855890 -2.699696 -0.310537 -3.783991 -0.103189 -0.947384 -0.187443 -0.052199 2.857835 -0.039035 -0.034599 -1.079765 -0.002811 -0.017546 -1.184513 0.034030 -0.002753 -1.063217 0.075396 0.010422 -0.706766 0.116128 0.017579 -0.169224 4.358965 0.062188 0.429724 4.386681 0.185243 1.018400 4.469340 0.392142 1.574112 -12.661981 -1.598745 -4.807131 -13.684153 -0.006288 -3.159713 42.014450 -4.870842 -1.492571 8.946312 1.946091 0.075768 8.941070 2.187947 -0.238209 9.207096 1.763458 -0.812903 9.249388 1.640828 -1.429210 9.174242 1.415021 -2.158346 -14.232599 1.409046 5.144329 -13.777698 0.003700 3.181259 38.114699 5.328196 0.687362 -0.000017 -0.000008 -0.000004 0.006180 0.005408 0.003395 0.005518 0.005279 0.002737 0.004820 0.004692 0.002486 0.004235 0.004883 0.002493 
-0.000000 -0.000000 19.578857 0.000000 -0.000000 0.000044 -8.806990 -0.000090 0.000041 -1.335527 0.000012 -0.000021 -1.022682 0.000001 -0.000005 -1.022683 0.000001 -0.000005 3.624775 -0.000001 0.000007 -4.143095 0.000001 -0.000006 4.031859 -0.000001 0.000006 7.362936 -0.000004 0.000008 -13.239342 -0.000021 0.000020 1.893377 0.000004 -0.000007 -0.000000 0.000000 -0.000000 0.000001 -0.000001 -0.000033 0.000124 -0.000076 0.000008 0.000006 0.000004 -0.000008 0.000008 0.000010 0.000001 0.000001 0.000000 -0.000003 0.000122 0.000077 -0.000019 -0.000001 -0.000002 -0.000003 0.000003 -0.000007 -0.000005 -0.000000 0.000000 0.000000 -0.000000 -0.000000 0.000000 29.824438 -18.575698 5.192359 -4.209635 0.699947 -1.095302 -14.528487 -5.826434 -7.797067 8.248683 8.404931 -39.428541 -1.243144 1.202752 -0.524196 -8.552990 20.510129 -15.969020 -1.762870 -0.372486 -0.190209 -0.952713 2.653377 -11.466225 -1.597050 -0.831396 -0.208633 -3.584597 -5.615647 -4.846096 -1.243789 -1.308815 -0.157864 0.722685 17.241481 35.340232 -1.026777 -1.479342 -0.207948 -0.000001 0.000000 0.000000 33.648831 18.059140 -7.114445 -4.975106 -0.836038 1.289218 -13.489560 5.994332 8.163628 8.910262 -3.448196 37.940891 2.382515 2.242090 -1.062897 -3.016867 -20.090510 17.357594 3.330745 -0.719660 -0.328065 4.052681 -4.116327 11.195093 3.013033 -1.586817 -0.331013 0.302037 2.117193 4.168020 2.344351 -2.483256 -0.220942 0.626377 -22.449836 -35.938249 1.929187 -2.806847 -0.321050 -3.782233 -0.080295 -0.671650 -0.197484 -0.054375 2.848810 -0.044284 -0.038233 -1.136390 -0.008082 -0.022074 -1.289209 0.028798 -0.008102 -1.215637 0.071946 0.005486 -0.881411 0.113864 0.013504 -0.320065 4.359150 0.053645 0.349371 4.390992 0.184601 1.018797 4.479571 0.400816 1.609660 -12.700121 -1.596761 -4.818073 -13.640730 -0.007460 -3.149730 42.015694 -4.869985 -1.493606 8.953805 1.953789 0.085214 8.949261 2.196687 -0.229719 9.217824 1.768855 -0.809539 9.260973 1.643536 -1.430063 9.184574 1.416574 -2.165228 -13.994366 1.412028 5.074110 -14.158364 -0.007062 3.268730 38.252816 5.323243 0.667953 -0.000018 -0.000006 -0.000006 0.014553 0.005868 0.006411 0.013555 0.005779 0.005373 0.012617 0.005179 0.005090 0.011709 0.005470 0.005102 
-0.000000 -0.000000 19.581890 0.000000 -0.000000 0.000044 -8.806990 -0.000090 0.000041 -1.335268 0.000012 -0.000021 -1.025750 0.000001 -0.000005 -1.025751 0.000001 -0.000005 3.640771 -0.000001 0.000007 -4.143095 0.000001 -0.000006 4.031858 -0.000001 0.000006 7.347144 -0.000004 0.000008 -13.247584 -0.000021 0.000020 1.885131 0.000004 -0.000007 0.000000 0.000000 -0.000000 0.000000 -0.000001 -0.000033 0.000124 -0.000076 0.000006 0.000006 0.000003 -0.000013 0.000009 0.000009 -0.000004 0.000000 0.000000 -0.000003 0.000122 0.000077 -0.000017 -0.000000 -0.000000 0.000000 0.000006 -0.000006 -0.000002 -0.000001 -0.000000 0.000000 -0.000002 -0.000000 0.000000 29.707676 -18.566585 5.133041 -4.085943 0.678210 -1.063817 -14.813533 -5.836299 -7.697892 8.231506 8.556929 -39.474347 -1.352700 1.309774 -0.569360 -8.722900 20.521425 -15.925998 -1.919000 -0.405178 -0.207599 -1.106017 2.608406 -11.475577 -1.738599 -0.904711 -0.228222 -3.704339 -5.723379 -4.870433 -1.354109 -1.424517 -0.173209 0.725134 17.082136 35.321647 -1.117974 -1.610131 -0.227643 -0.000002 0.000000 0.000000 33.717137 18.067807 -7.160454 -5.085969 -0.855972 1.317155 -13.178849 5.983008 8.271325 8.924440 -3.348123 37.909145 2.457057 2.310853 -1.097343 -2.904911 -20.080538 17.385215 3.433908 -0.742260 -0.337562 4.154266 -4.146843 11.192565 3.106292 -1.636259 -0.339935 0.380334 2.045627 4.156083 2.416908 -2.560346 -0.226163 0.623724 -22.556473 -35.951848 1.988784 -2.893994 -0.329493 -3.781110 -0.058460 -0.402236 -0.207384 -0.055752 2.858604 -0.049510 -0.040559 -1.178732 -0.013344 -0.025713 -1.383920 0.023505 -0.013189 -1.365339 0.068040 0.000580 -1.069279 0.111152 0.009252 -0.502619 4.358470 0.042216 0.235008 4.394629 0.180529 0.998872 4.489025 0.411869 1.659366 -12.749150 -1.594133 -4.831651 -13.588223 -0.008871 -3.137657 42.008597 -4.870100 -1.493364 8.967022 1.967764 0.104037 8.966973 2.214126 -0.214759 9.239018 1.780953 -0.801664 9.283185 1.651973 -1.430511 9.205696 1.422280 -2.174275 -13.751834 1.414961 5.004733 -14.544575 -0.018572 3.357406 38.434533 5.308625 0.645855 -0.000017 -0.000009 -0.000006 0.048482 0.001983 0.013412 0.047320 0.001905 0.011904 0.046347 0.001281 0.011605 0.045380 0.001583 0.011616 
0.000000 0.000000 19.586311 0.000000 -0.000000 0.000044 -8.806990 -0.000090 0.000041 -1.334667 0.000012 -0.000021 -1.029994 0.000001 -0.000005 -1.029993 0.000001 -0.000005 3.666107 -0.000001 0.000007 -4.143095 0.000001 -0.000006 4.031858 -0.000001 0.000006 7.322857 -0.000004 0.000008 -13.256564 -0.000021 0.000020 1.876156 0.000004 -0.000007 0.000000 0.000000 -0.000000 0.000001 -0.000001 -0.000033 0.000123 -0.000076 0.000010 0.000007 0.000003 -0.000009 0.000006 0.000009 0.000002 0.000001 0.000000 -0.000003 0.000123 0.000077 -0.000019 0.000002 -0.000000 -0.000003 0.000004 -0.000007 -0.000005 -0.000001 0.000000 0.000000 -0.000001 0.000000 0.000000 29.578302 -18.557033 5.070102 -3.953556 0.655018 -1.030066 -15.104221 -5.847325 -7.597153 8.212712 8.722310 -39.523829 -1.471750 1.426267 -0.618239 -8.907778 20.533031 -15.878837 -2.088815 -0.440676 -0.226613 -1.272696 2.559644 -11.486304 -1.892574 -0.984396 -0.249727 -3.834806 -5.840067 -4.897667 -1.474128 -1.550321 -0.190156 0.727605 16.908833 35.301368 -1.217205 -1.752331 -0.249302 -0.000001 0.000000 -0.000000 33.768435 18.078519 -7.201800 -5.197665 -0.876104 1.345266 -12.846248 5.971505 8.384760 8.936012 -3.266267 37.883139 2.518074 2.367068 -1.125591 -2.813300 -20.072309 17.407924 3.518292 -0.760759 -0.345297 4.237416 -4.171740 11.190753 3.182573 -1.676714 -0.347176 0.442811 1.987306 4.146520 2.476264 -2.623414 -0.230367 0.621845 -22.642608 -35.963070 2.037529 -2.965285 -0.336333 -3.780851 -0.038624 -0.142154 -0.217128 -0.056402 2.888887 -0.054692 -0.041696 -1.207694 -0.018593 -0.028529 -1.466875 0.018164 -0.017917 -1.509070 0.063669 -0.004219 -1.263022 0.107991 0.004866 -0.711013 4.356964 0.027615 0.082490 4.397620 0.170976 0.944687 4.497755 0.421490 1.706445 -12.808154 -1.590913 -4.847619 -13.527506 -0.010487 -3.123693 41.993622 -4.871124 -1.491891 8.995633 1.991478 0.135625 8.996969 2.243486 -0.190900 9.274660 1.800924 -0.788235 9.320049 1.667184 -1.430706 9.241102 1.432435 -2.188727 -13.506587 1.417817 4.936251 -14.937620 -0.030902 3.447573 38.654120 5.284906 0.621784 -0.000017 -0.000006 -0.000004 0.103300 -0.005333 0.023828 0.102071 -0.005440 0.021796 0.101188 -0.006085 0.021487 0.100341 -0.005806 0.021483 
